<svg width="444" height="283" viewBox="0 0 444 283" fill="none" xmlns="http://www.w3.org/2000/svg">
<path fill-rule="evenodd" clip-rule="evenodd" d="M40.0857 1.2894C34.9034 3.13786 32.746 5.05415 26.4112 13.4392C-0.280523 48.7669 -7.46999 98.7989 8.18825 140.261C19.1818 169.373 42.171 196.49 67.5452 210.277L73.3728 213.444L73.6395 241.337L73.907 269.23L76.5333 273.479C77.9776 275.817 80.8446 278.915 82.9046 280.365L86.6496 283H221.987H357.324L361.069 280.365C363.129 278.915 365.996 275.817 367.44 273.479L370.066 269.23L370.334 241.337L370.6 213.444L376.428 210.277C391.042 202.337 408.505 186.443 419.337 171.227C426.047 161.799 434.44 145.348 437.743 135.147C450.512 95.7036 443.417 49.5685 419.389 15.8171C413.267 7.21647 410.754 4.55942 406.84 2.54402C399.479 -1.24681 392.178 -0.673832 386.888 4.11165C381.211 9.24579 379.899 12.794 379.087 25.2055C377.875 43.7501 372.709 59.4534 363.026 74.035C357.781 81.9332 347.438 92.451 339.433 98.0242L333.119 102.422L328.143 97.1895C313.476 81.768 289.573 66.2343 271.372 60.2967L266.477 58.6996L266.107 51.6404C265.458 39.2803 259.047 30.1101 248.219 26.0541C243.663 24.3474 241.941 24.2517 220.299 24.5039L197.234 24.7717L192.892 27.0879C183.369 32.1664 178.507 40.1462 177.876 51.7344L177.497 58.6996L172.601 60.2967C154.401 66.2343 130.497 81.768 115.83 97.1895L110.854 102.422L104.54 98.0242C96.5358 92.451 86.1919 81.9332 80.947 74.035C71.2641 59.4534 66.0983 43.7501 64.8858 25.2055C64.0981 13.1583 62.8266 9.51445 57.699 4.60985C52.7685 -0.10521 47.0294 -1.18681 40.0857 1.2894ZM47.8441 38.683C50.1439 53.3255 56.9686 70.2085 66.2068 84.1068C73.7376 95.4384 88.404 109.992 99.3602 117.008C99.5078 117.102 98.2884 119.275 96.6522 121.839C91.2501 130.3 84.5939 144.574 81.139 155.107C77.7475 165.446 74.3412 182.305 74.3412 188.75C74.3412 190.616 73.9947 192.142 73.5717 192.142C71.6237 192.142 61.0531 184.059 53.4607 176.763C35.8197 159.813 24.4301 138.372 19.8566 113.507C17.8564 102.632 17.8998 82.0062 19.9434 72.157C23.7414 53.8532 30.6573 38.583 42.1232 23.1858L45.2464 18.9924L45.9308 24.9247C46.3068 28.1878 47.1684 34.3791 47.8441 38.683ZM406.032 29.1259C414.436 41.3513 420.79 56.5416 424.03 72.157C426.069 81.9853 426.117 102.635 424.125 113.456C419.539 138.372 408.135 159.83 390.446 176.827C383.123 183.863 372.356 192.142 370.527 192.142C370.172 192.142 369.615 188.932 369.287 185.009C367.636 165.184 358.834 139.871 347.321 121.839C345.685 119.275 344.465 117.112 344.613 117.031C348.25 115.02 360.035 104.946 365.598 99.0936C384.664 79.037 395.203 54.9609 397.911 25.2768L398.499 18.8272L400.171 20.9295C401.091 22.0868 403.729 25.775 406.032 29.1259ZM244.021 44.4022C245.283 45.3952 246.708 46.9419 247.188 47.8392C247.809 49.0008 245.799 72.1787 240.202 128.413C235.88 171.833 232.175 207.847 231.969 208.444C231.481 209.86 211.565 210.014 211.565 208.602C211.565 207.304 197.962 70.2329 196.758 59.3951C195.633 49.2694 195.9 47.8548 199.518 44.8074L202.144 42.5955H221.936C240.659 42.5955 241.852 42.6929 244.021 44.4022ZM186.254 141.061C189.714 176.09 192.752 205.825 193.005 207.14L193.464 209.531H142.902H92.3392L92.8334 194.968C93.5177 174.743 96.9449 160.355 105.207 143.018C112 128.762 117.066 121.804 130.794 107.871C139.704 98.8276 150.841 90.4669 160.684 85.431C165.064 83.1904 178.551 77.4198 179.48 77.3894C179.745 77.3807 182.794 106.033 186.254 141.061ZM275.677 81.9305C290.743 88.4654 304.547 98.2198 315.785 110.274C327.653 123.004 332.562 129.998 338.766 143.018C347.028 160.355 350.456 174.743 351.14 194.968L351.634 209.531H301.059H250.484L251.013 205.401C251.811 199.164 263.675 80.5246 263.675 78.7762C263.675 76.8973 264.689 77.1642 275.677 81.9305ZM351.394 246.483V265.176H221.987H92.5798V246.483V227.79H221.987H351.394V246.483Z" fill="white"/>
</svg>
